# xmcd CD database file
#
# Track frame offsets:
#	150
#	22144
#	41874
#	64669
#	84379
#
# Disc length: 1388 seconds
#
# Revision: 0
# Processed by: cddbd v1.5.1PL0 Copyright (c) Steve Scherf et al.
# Submitted via: CDex 1.51
#
DISCID=3d056a05
DTITLE=Hue and Cry - NACSI Demonstration Recordings
DYEAR=1900
DGENRE=Jazz
TTITLE0=Letter To My Lover
TTITLE1=I Didn't Know
TTITLE2=Make It Easy For Me
TTITLE3=Say Goodbye (instrumental)
TTITLE4=Just Say You Love Me (instrumental)
EXTD=
EXTT0=
EXTT1=
EXTT2=
EXTT3=
EXTT4=
PLAYORDER=
